<svg xmlns="http://www.w3.org/2000/svg" viewBox="0 0 512 512" width="512" height="512">
  <defs>
    <linearGradient id="g" x1="0" y1="0" x2="1" y2="1">
      <stop offset="0" stop-color="#4FC3F7"/>
      <stop offset="1" stop-color="#1565C0"/>
    </linearGradient>
  </defs>
  <rect width="512" height="512" rx="96" fill="#0B1622"/>
  <g transform="translate(256 256) rotate(0) translate(-256 -256)">
    <path d="M300 56h140a24 24 0 0 1 24 24v140a56 56 0 0 1-16.4 39.6L246 439.2a24 24 0 0 1-33.9 0L72.8 299.9a24 24 0 0 1 0-33.9L260.4 72.4A56 56 0 0 1 300 56z"
          fill="url(#g)"/>
    <circle cx="396" cy="124" r="34" fill="#0B1622"/>
    <circle cx="396" cy="124" r="18" fill="#4FC3F7"/>
  </g>
</svg>
